<?xml version="1.0" encoding="utf-8"?>
<!-- Generator: Adobe Illustrator 27.7.0, SVG Export Plug-In . SVG Version: 6.00 Build 0)  -->
<svg version="1.1" id="Layer_1" xmlns="http://www.w3.org/2000/svg" xmlns:xlink="http://www.w3.org/1999/xlink" x="0px" y="0px"
	 viewBox="0 0 72.7 79" style="enable-background:new 0 0 72.7 79;" xml:space="preserve">
<style type="text/css">
	.st0{fill:#FFFFFF;}
</style>
<path class="st0" d="M62.5,46.4c-2.6-2.3-5.7-4.6-9.1-7c3.5-2.4,6.5-4.7,9.1-7c6.2-5.4,8.6-9.4,7.2-12c-1.4-2.5-6.1-2.7-14-0.4
	c-3.6,1-7.6,2.5-11.8,4.3C42.7,10.9,39.7,0,35.1,0s-7.7,10.9-8.9,24.5c-4.2-1.8-8.2-3.3-11.8-4.3c-7.9-2.3-12.6-2.1-14,0.4
	c-2.2,4,5.5,11.5,16.3,18.9C5.8,46.9-1.8,54.5,0.4,58.4c0.7,1.3,2.4,2,4.9,2c2.3,0,5.3-0.5,9-1.6c3.6-1,7.6-2.5,11.8-4.3
	c1.3,13.6,4.3,24.5,9,24.5c4.6,0,7.7-10.9,8.9-24.5c4.2,1.8,8.2,3.3,11.8,4.3c3.7,1.1,6.7,1.6,9,1.6c2.6,0,4.2-0.7,4.9-2
	C71.1,55.9,68.7,51.8,62.5,46.4z M56.3,22.1c3.8-1.1,6.6-1.5,8.5-1.5c1.9,0,2.8,0.4,3.1,1c0.6,1.1-0.8,4.3-6.8,9.5
	c-2.7,2.3-5.9,4.8-9.6,7.3c-2.2-1.5-4.6-3-7.1-4.4c-0.1-2.5-0.2-4.9-0.4-7.3C48.5,24.7,52.7,23.1,56.3,22.1z M39.6,47.9
	c1-0.5,1.9-1.1,2.9-1.6c-0.1,1.8-0.2,3.5-0.3,5.2c-1.6-0.7-3.3-1.5-4.9-2.4C38.1,48.7,38.8,48.3,39.6,47.9z M38.7,46.1
	c-1.2,0.7-2.4,1.3-3.6,1.9c-1.2-0.6-2.4-1.3-3.6-1.9c-1.3-0.7-2.6-1.5-3.9-2.2c0-1.4-0.1-2.9-0.1-4.5c0-1.6,0-3,0.1-4.5
	c1.3-0.7,2.5-1.5,3.9-2.2c1.2-0.7,2.4-1.3,3.6-1.9c1.2,0.6,2.4,1.3,3.6,1.9c1.3,0.7,2.6,1.5,3.9,2.2c0,1.4,0.1,2.9,0.1,4.5
	c0,1.6,0,3-0.1,4.5C41.3,44.7,40,45.4,38.7,46.1z M32.9,49.1c-1.7,0.8-3.3,1.6-4.9,2.4c-0.1-1.7-0.2-3.4-0.3-5.2
	c0.9,0.5,1.9,1.1,2.9,1.6C31.3,48.3,32.1,48.7,32.9,49.1z M25.5,42.7c-1.8-1.1-3.6-2.2-5.2-3.3c1.6-1.1,3.4-2.2,5.2-3.3V42.7z
	 M27.6,32.7c0.1-1.8,0.2-3.5,0.3-5.2c1.6,0.7,3.3,1.5,4.9,2.4c-0.8,0.4-1.6,0.8-2.4,1.3C29.5,31.6,28.6,32.1,27.6,32.7z M37.3,29.8
	c1.7-0.8,3.3-1.6,4.9-2.4c0.1,1.7,0.2,3.4,0.3,5.2c-0.9-0.5-1.9-1.1-2.9-1.6C38.8,30.6,38.1,30.2,37.3,29.8z M44.6,36.2
	c1.8,1.1,3.6,2.2,5.2,3.3c-1.7,1.1-3.4,2.2-5.2,3.3V36.2z M35.1,2c2.5,0,5.7,8.6,7,23.4c-2.3,1-4.6,2.1-7,3.3
	c-2.4-1.2-4.7-2.3-7-3.3C29.4,10.6,32.6,2,35.1,2z M2.1,21.5c0.6-1.1,4-1.6,11.6,0.6c3.7,1.1,7.8,2.6,12.2,4.5
	c-0.2,2.4-0.3,4.8-0.4,7.3c-2.4,1.4-4.8,2.9-7.1,4.4C6.7,30.3,1,23.6,2.1,21.5z M13.8,56.9c-7.6,2.2-11,1.7-11.6,0.6
	c-1.1-2.1,4.6-8.8,16.4-16.8c2.3,1.5,4.6,3,7.1,4.4c0.1,2.5,0.2,4.9,0.4,7.3C21.6,54.3,17.5,55.8,13.8,56.9z M35.1,77
	c-2.5,0-5.7-8.6-7-23.4c2.3-1,4.6-2.1,7-3.3c2.4,1.2,4.7,2.3,7,3.3C40.7,68.4,37.5,77,35.1,77z M68,57.4c-0.6,1.1-4,1.6-11.6-0.6
	c-3.7-1.1-7.8-2.6-12.2-4.5c0.2-2.4,0.3-4.8,0.4-7.3c2.5-1.5,4.8-2.9,7.1-4.4c3.7,2.5,6.9,4.9,9.6,7.3C67.2,53.2,68.6,56.3,68,57.4z
	"/>
<path class="st0" d="M35.1,43.6c-2.3,0-4.2-1.9-4.2-4.2s1.9-4.2,4.2-4.2s4.2,1.9,4.2,4.2S37.4,43.6,35.1,43.6z M35.1,37.3
	c-1.2,0-2.2,1-2.2,2.2c0,1.2,1,2.2,2.2,2.2s2.2-1,2.2-2.2C37.3,38.3,36.3,37.3,35.1,37.3z M55.8,12.3c-1.2,0-2.2-1-2.2-2.2
	c0-1.2,1-2.2,2.2-2.2c1.2,0,2.2,1,2.2,2.2C58,11.3,56.9,12.3,55.8,12.3z M55.8,10c-0.1,0-0.2,0.1-0.2,0.2c0,0.2,0.3,0.2,0.3,0
	C55.9,10,55.8,10,55.8,10z M68.8,11.1c-2.2,0-3.9-1.8-3.9-3.9s1.8-3.9,3.9-3.9c2.1,0,3.9,1.8,3.9,3.9S71,11.1,68.8,11.1z M68.8,5.3
	c-1.1,0-1.9,0.9-1.9,1.9s0.9,1.9,1.9,1.9s1.9-0.9,1.9-1.9S69.9,5.3,68.8,5.3z M8.5,75.7c-1.8,0-3.3-1.5-3.3-3.3
	c0-1.8,1.5-3.3,3.3-3.3c1.8,0,3.3,1.5,3.3,3.3C11.8,74.2,10.4,75.7,8.5,75.7z M8.5,71.1c-0.7,0-1.3,0.6-1.3,1.3
	c0,0.7,0.6,1.3,1.3,1.3c0.7,0,1.3-0.6,1.3-1.3C9.8,71.7,9.3,71.1,8.5,71.1z"/>
</svg>
