<svg width="93" height="93" viewBox="0 0 93 93" fill="none" xmlns="http://www.w3.org/2000/svg">
<path d="M92.9998 88.8566C92.9847 89.1263 92.8701 89.3809 92.6781 89.5709L89.5816 92.6682C89.4227 92.827 89.2202 92.935 88.9999 92.9785C88.7795 93.022 88.5512 92.9991 88.3438 92.9127C88.1365 92.8262 87.9595 92.6801 87.8354 92.4929C87.7112 92.3057 87.6453 92.0858 87.6463 91.8612C87.6461 91.7122 87.6754 91.5647 87.7324 91.4271C87.7895 91.2896 87.8732 91.1646 87.9788 91.0596L89.1291 89.909L4.45411 89.6964C4.15337 89.6964 3.86495 89.5769 3.65229 89.3641C3.43964 89.1514 3.32017 88.8629 3.32017 88.5621L3.11301 3.86681L1.96271 5.01739C1.75017 5.23432 1.46017 5.35791 1.15653 5.36098C0.85288 5.36405 0.560451 5.24634 0.343571 5.03374C0.126691 4.82115 0.00312563 4.53109 5.84845e-05 4.22737C-0.00300866 3.92365 0.114673 3.63115 0.327216 3.41422L3.44556 0.333296L3.50553 0.273313C3.67858 0.126486 3.89085 0.0335946 4.11611 0.00611868C4.18675 -0.00203956 4.25809 -0.00203956 4.32873 0.00611868C4.60223 0.0230446 4.86011 0.139409 5.05379 0.333296L8.14488 3.41967C8.25227 3.52529 8.3378 3.65104 8.39661 3.78973C8.45541 3.92842 8.48633 4.07733 8.48759 4.22797C8.48886 4.37861 8.46045 4.52803 8.40398 4.66769C8.34752 4.80734 8.26411 4.93451 8.15851 5.04192C8.05291 5.14934 7.92719 5.2349 7.78854 5.29371C7.64988 5.35253 7.501 5.38345 7.3504 5.38472C7.19979 5.38599 7.05041 5.35757 6.91079 5.30109C6.77117 5.24461 6.64403 5.16118 6.53664 5.05556L5.38634 3.90498L5.59351 87.4497L89.1182 87.6569L87.9461 86.4846C87.7292 86.272 87.6057 85.9819 87.6026 85.6782C87.5995 85.3745 87.7172 85.082 87.9297 84.865C88.1423 84.6481 88.4323 84.5245 88.7359 84.5214C89.0396 84.5184 89.332 84.6361 89.5489 84.8487L92.6454 87.9459L92.6999 88.0005C92.8491 88.1705 92.944 88.3813 92.9725 88.6058C92.9924 88.6878 93.0016 88.7721 92.9998 88.8566ZM10.4509 61.1665V43.6407C10.4502 43.4913 10.479 43.3432 10.5357 43.205C10.5923 43.0667 10.6757 42.941 10.7811 42.8351C10.8865 42.7292 11.0117 42.6452 11.1497 42.5879C11.2876 42.5305 11.4355 42.501 11.5849 42.501H14.3107V27.6908C14.3306 27.4029 14.4591 27.1332 14.67 26.9363C14.881 26.7394 15.1588 26.6299 15.4474 26.6299C15.7359 26.6299 16.0137 26.7394 16.2247 26.9363C16.4357 27.1332 16.5641 27.4029 16.584 27.6908V42.501H19.2553C19.4052 42.5003 19.5537 42.5293 19.6922 42.5863C19.8308 42.6433 19.9567 42.7272 20.0626 42.8332C20.1686 42.9392 20.2525 43.0651 20.3095 43.2037C20.3665 43.3423 20.3955 43.4908 20.3947 43.6407V61.1665C20.3962 61.3168 20.3677 61.4659 20.3111 61.6051C20.2544 61.7444 20.1706 61.8709 20.0646 61.9775C19.9585 62.084 19.8324 62.1685 19.6935 62.2258C19.5546 62.2832 19.4056 62.3123 19.2553 62.3116H16.5568V77.1218C16.5368 77.4098 16.4084 77.6794 16.1974 77.8763C15.9865 78.0732 15.7087 78.1827 15.4201 78.1827C15.1316 78.1827 14.8537 78.0732 14.6428 77.8763C14.4318 77.6794 14.3034 77.4098 14.2834 77.1218V62.3116H11.5576C11.2597 62.3044 10.9766 62.1803 10.7695 61.966C10.5624 61.7517 10.448 61.4645 10.4509 61.1665ZM12.7134 60.0323H18.1105V44.764H12.7134V60.0323ZM43.3026 65.5507V48.0194C43.3026 47.7186 43.422 47.4301 43.6347 47.2174C43.8473 47.0047 44.1358 46.8852 44.4365 46.8852H47.1623V32.075C47.1823 31.787 47.3107 31.5174 47.5217 31.3205C47.7326 31.1236 48.0104 31.0141 48.299 31.0141C48.5875 31.0141 48.8653 31.1236 49.0763 31.3205C49.2873 31.5174 49.4157 31.787 49.4357 32.075V46.8852H52.1615C52.4622 46.8852 52.7506 47.0047 52.9633 47.2174C53.176 47.4301 53.2954 47.7186 53.2954 48.0194V65.5507C53.2954 65.8515 53.176 66.14 52.9633 66.3527C52.7506 66.5654 52.4622 66.6849 52.1615 66.6849H49.4357V81.4951C49.4157 81.783 49.2873 82.0527 49.0763 82.2496C48.8653 82.4465 48.5875 82.556 48.299 82.556C48.0104 82.556 47.7326 82.4465 47.5217 82.2496C47.3107 82.0527 47.1823 81.783 47.1623 81.4951V66.674H44.4365C44.1386 66.6725 43.8532 66.5539 43.642 66.3437C43.4309 66.1335 43.3109 65.8486 43.308 65.5507H43.3026ZM45.5759 64.411H50.9676V49.1427H45.5813L45.5759 64.411ZM26.8876 48.0194V30.4881C26.8876 30.3387 26.9171 30.1908 26.9745 30.0528C27.0318 29.9149 27.1158 29.7896 27.2217 29.6842C27.3276 29.5788 27.4532 29.4954 27.5914 29.4387C27.7296 29.382 27.8777 29.3532 28.027 29.3539H30.7038V14.5437C30.7237 14.2558 30.8522 13.9861 31.0631 13.7892C31.2741 13.5923 31.5519 13.4828 31.8405 13.4828C32.129 13.4828 32.4068 13.5923 32.6178 13.7892C32.8288 13.9861 32.9572 14.2558 32.9771 14.5437V29.3539H35.6757C35.9764 29.3539 36.2649 29.4734 36.4775 29.6861C36.6902 29.8988 36.8096 30.1873 36.8096 30.4881V48.0194C36.8096 48.3202 36.6902 48.6087 36.4775 48.8214C36.2649 49.0341 35.9764 49.1536 35.6757 49.1536H32.9826V63.9475C32.9826 64.2497 32.8625 64.5396 32.6489 64.7534C32.4352 64.9671 32.1454 65.0872 31.8432 65.0872C31.541 65.0872 31.2512 64.9671 31.0375 64.7534C30.8238 64.5396 30.7038 64.2497 30.7038 63.9475V49.1536H28.0161C27.7163 49.1522 27.4293 49.032 27.2178 48.8195C27.0064 48.6069 26.8876 48.3193 26.8876 48.0194ZM29.161 46.8852H34.5581V31.6169H29.161V46.8852ZM76.176 58.9744V41.4486C76.1774 41.1468 76.2979 40.8577 76.5113 40.6443C76.7247 40.4309 77.0136 40.3104 77.3154 40.3089H80.0412V25.5041C80.0412 25.2033 80.1607 24.9148 80.3733 24.7021C80.586 24.4894 80.8744 24.3699 81.1752 24.3699C81.4759 24.3699 81.7643 24.4894 81.977 24.7021C82.1896 24.9148 82.3091 25.2033 82.3091 25.5041V40.3089H85.0077C85.3094 40.3104 85.5984 40.4309 85.8118 40.6443C86.0251 40.8577 86.1456 41.1468 86.1471 41.4486V58.9744C86.1456 59.2762 86.0251 59.5653 85.8118 59.7787C85.5984 59.9921 85.3094 60.1126 85.0077 60.1141H82.3091V74.9188C82.3091 75.2197 82.1896 75.5081 81.977 75.7208C81.7643 75.9335 81.4759 76.0531 81.1752 76.0531C80.8744 76.0531 80.586 75.9335 80.3733 75.7208C80.1607 75.5081 80.0412 75.2197 80.0412 74.9188V60.1304H77.3154C77.1637 60.1311 77.0133 60.1017 76.8731 60.0438C76.7328 59.9859 76.6055 59.9007 76.4984 59.7931C76.3914 59.6855 76.3068 59.5578 76.2496 59.4172C76.1924 59.2767 76.1636 59.1261 76.1651 58.9744H76.176ZM78.4493 57.8402H83.8465V42.5719H78.4493V57.8402ZM59.7502 41.4486V23.9173C59.7502 23.6165 59.8696 23.328 60.0823 23.1153C60.295 22.9026 60.5834 22.7831 60.8841 22.7831H63.5827V7.97289C63.6026 7.68496 63.7311 7.41532 63.942 7.21842C64.153 7.02151 64.4308 6.91201 64.7194 6.91201C65.0079 6.91201 65.2857 7.02151 65.4967 7.21842C65.7076 7.41532 65.8361 7.68496 65.856 7.97289V22.7831H68.5546C68.8553 22.7831 69.1438 22.9026 69.3564 23.1153C69.5691 23.328 69.6885 23.6165 69.6885 23.9173V41.4486C69.6885 41.7494 69.5691 42.0379 69.3564 42.2506C69.1438 42.4633 68.8553 42.5828 68.5546 42.5828H65.856V57.4039C65.8361 57.6919 65.7076 57.9615 65.4967 58.1584C65.2857 58.3553 65.0079 58.4648 64.7194 58.4648C64.4308 58.4648 64.153 58.3553 63.942 58.1584C63.7311 57.9615 63.6026 57.6919 63.5827 57.4039V42.5828H60.8841C60.7343 42.5842 60.5857 42.556 60.4468 42.4996C60.308 42.4433 60.1817 42.3599 60.0752 42.2545C59.9688 42.149 59.8843 42.0235 59.8266 41.8852C59.769 41.7468 59.7393 41.5985 59.7393 41.4486H59.7502ZM62.0181 40.3089H67.4152V25.0406H62.0181V40.3089Z" fill="white"/>
</svg>
