<svg width="69" height="98" viewBox="0 0 69 98" fill="none" xmlns="http://www.w3.org/2000/svg">
<path d="M65.75 96.4375C65.75 96.0231 65.5854 95.6257 65.2924 95.3326C64.9993 95.0396 64.6019 94.875 64.1875 94.875H7.9375C7.5231 94.875 7.12567 95.0396 6.83265 95.3326C6.53962 95.6257 6.375 96.0231 6.375 96.4375C6.375 96.8519 6.53962 97.2493 6.83265 97.5424C7.12567 97.8354 7.5231 98 7.9375 98H64.1875C64.6019 98 64.9993 97.8354 65.2924 97.5424C65.5854 97.2493 65.75 96.8519 65.75 96.4375Z" fill="white"/>
<path d="M0.981246 27.2312C-0.325004 28.1 -2.30625 30.7437 -0.428129 34.5C1.13125 37.6156 4.38437 41.4281 7.84375 42.4344C8.67523 42.6949 9.55274 42.775 10.4177 42.6694C11.2826 42.5638 12.115 42.2748 12.8594 41.8219C16.2937 39.7656 20.35 36.9844 22.0687 35.7906C24.2375 36.8875 26.975 37.1156 29.7562 36.4L29.7937 36.3875C29.6312 41.5469 27.8844 44.7687 19.3437 52.7C11.7312 59.7656 7.21562 69.0469 7.25937 77.5312C7.29062 83.0969 9.31875 87.875 13.1344 91.3406C13.4219 91.6039 13.7976 91.75 14.1875 91.75H57.9375C58.3519 91.75 58.7493 91.5854 59.0424 91.2923C59.3354 90.9993 59.5 90.6019 59.5 90.1875C59.5 89.7731 59.3354 89.3757 59.0424 89.0826C58.7493 88.7896 58.3519 88.625 57.9375 88.625H14.8094C11.9375 85.7969 10.4125 81.9687 10.3875 77.5156C10.3469 70.0094 14.5969 61.375 21.4719 54.9906C30.5812 46.5344 32.9375 42.5281 32.9375 35.5C32.9375 35.3719 32.8937 35.2594 32.8656 35.1406C34.575 34.2187 36.0531 33 37.0625 31.525C38.3281 29.6812 41.0531 24.9469 39.0312 20.7562C38.9418 20.5716 38.8168 20.4063 38.6635 20.2699C38.5102 20.1336 38.3315 20.0287 38.1376 19.9614C37.9438 19.8941 37.7386 19.8656 37.5338 19.8776C37.3289 19.8896 37.1284 19.9418 36.9437 20.0312C36.7591 20.1207 36.5938 20.2457 36.4575 20.399C36.3211 20.5523 36.2162 20.731 36.1489 20.9248C36.0816 21.1187 36.0531 21.3239 36.0651 21.5287C36.0771 21.7336 36.1293 21.9341 36.2187 22.1187C37.1281 24.0031 36.4812 26.8594 34.4875 29.7594C33.3375 31.4344 31.2812 32.7875 28.9844 33.375C26.65 33.9719 24.4312 33.7094 22.8844 32.65C22.6212 32.4697 22.3092 32.3742 21.9902 32.3765C21.6712 32.3787 21.3606 32.4785 21.1 32.6625C21.0437 32.7 15.5469 36.5719 11.2594 39.1437C10.8835 39.375 10.4616 39.5212 10.0232 39.5719C9.5848 39.6227 9.14062 39.5768 8.72187 39.4375C6.30312 38.7312 3.64375 35.65 2.37187 33.1062C1.34375 31.05 2.39687 30.0687 2.875 29.7187C13.6469 20.4156 19.0531 10.75 19.275 10.3406C19.3778 10.1514 19.4408 9.94323 19.4602 9.7288C19.4795 9.51437 19.4548 9.29825 19.3875 9.09373C18.7116 7.00779 18.1483 4.88702 17.7 2.7406C20.9687 4.70936 26.5906 7.45936 32.4437 7.45936C40.5812 7.45936 59.5 10.4969 59.5 38.6344C59.5 38.7875 59.4719 54.0844 53.3438 70.9062C53.2712 71.0997 53.2377 71.3056 53.2452 71.5121C53.2528 71.7186 53.3012 71.9215 53.3877 72.1092C53.4742 72.2968 53.5971 72.4655 53.7492 72.6053C53.9013 72.7452 54.0796 72.8534 54.2738 72.9239C54.4681 72.9944 54.6744 73.0256 54.8808 73.0158C55.0871 73.006 55.2896 72.9554 55.4762 72.8668C55.6629 72.7783 55.8302 72.6536 55.9684 72.5C56.1066 72.3464 56.2129 72.1669 56.2812 71.9719C62.5969 54.6344 62.6281 39.2656 62.625 38.625C62.625 6.80311 39.5219 4.33123 32.4437 4.33123C24.6031 4.33123 16.7812 -1.61565 16.7062 -1.67815C16.4731 -1.85388 16.1959 -1.96176 15.9053 -1.98989C15.6146 -2.01801 15.3219 -1.96528 15.0594 -1.83752C14.7979 -1.7087 14.5777 -1.50932 14.4237 -1.26193C14.2696 -1.01453 14.1878 -0.728971 14.1875 -0.43752C14.1875 2.62811 15.6406 7.58748 16.2062 9.39686C14.9 11.5781 9.75 19.65 0.981246 27.2312Z" fill="white"/>
<path d="M51.6406 2.8125C46.6375 -0.559375 41.0438 -2 32.9375 -2C32.5231 -2 32.1257 -1.83538 31.8326 -1.54235C31.5396 -1.24933 31.375 -0.851901 31.375 -0.4375C31.375 -0.0230992 31.5396 0.374329 31.8326 0.667354C32.1257 0.96038 32.5231 1.125 32.9375 1.125C40.375 1.125 45.4469 2.40312 49.8969 5.40312C57.1281 10.2844 65.75 20.0094 65.75 38.625C65.75 43.1594 65.75 49.3687 62.6719 61.6844C62.5823 62.0826 62.652 62.5 62.8662 62.8474C63.0804 63.1948 63.422 63.4446 63.818 63.5434C64.214 63.6422 64.633 63.5822 64.9852 63.3761C65.3375 63.17 65.5952 62.8342 65.7031 62.4406C68.875 49.7563 68.875 43.3219 68.875 38.625C68.875 18.6375 59.5031 8.11563 51.6406 2.8125Z" fill="white"/>
</svg>
